<svg xmlns="http://www.w3.org/2000/svg" width="1000" height="500" viewBox="0 0 1000 500">
    <polyline points="62.3779762122064,322.3404255319149 111.14514350800593,305.3191489361702 128.78228108731685,305.3191489361702 174.13898847117065,305.3191489361702 201.965888099532,305.3191489361702 215.53982520571554,305.3191489361702 245.38189703638267,296.8085106382979 340.8134432429671,288.29787234042556 367.970079073605,279.7872340425532 399.0935375763905,237.2340425531915 406.54310351121865,220.2127659574468 449.3326567417003,75.531914893617 512.9003877016087,50.0 518.9831411861771,50.0 536.6925621162229,67.02127659574467 556.0995465862545,101.06382978723406 604.6761486846622,228.72340425531917 629.0334474777492,228.72340425531917 725.1768751688437,67.02127659574467 732.7972926599543,67.02127659574467 779.5952862493704,75.531914893617 802.3054008075292,169.14893617021278 856.8158088799003,203.19148936170214 860.0400844035894,305.3191489361702 863.6827271997139,313.82978723404256 868.2541015325531,313.82978723404256 873.1277516957382,313.82978723404256 937.6220237877936,322.3404255319149 950.0,322.3404255319149 950.0,450 62.3779762122064,450 62.3779762122064,322.3404255319149" fill="red" stroke="black" stroke-width="2" />
    </svg>